<svg width="18" height="18" viewBox="0 0 18 18" fill="none" xmlns="http://www.w3.org/2000/svg">
<g clip-path="url(#clip0_2_539)">
<path d="M9 0C4.03736 0 0 4.03736 0 9C0 13.9626 4.03736 18 9 18C13.9626 18 18 13.9626 18 9C18 4.03736 13.9626 0 9 0ZM9 17.234C4.45959 17.234 0.765955 13.5404 0.765955 9C0.765955 4.45959 4.45959 0.765955 9 0.765955C13.5404 0.765955 17.234 4.45959 17.234 9C17.234 13.5404 13.5404 17.234 9 17.234Z" fill="#222222"/>
<path d="M9 2.37567C5.34751 2.37567 2.37567 5.3475 2.37567 9C2.37567 12.6525 5.34751 15.6243 9 15.6243C12.6525 15.6243 15.6243 12.6525 15.6243 9C15.6243 5.3475 12.6525 2.37567 9 2.37567ZM14.8364 9.50415C14.7242 10.8141 14.1794 12.0023 13.3455 12.9247L12.6977 12.277L12.1562 12.8186L12.7959 13.4583C11.8637 14.2532 10.6802 14.7614 9.38296 14.8456V13.9679H8.61701V14.8456C7.31921 14.7614 6.13532 14.2528 5.20296 13.4574L5.83927 12.8193L5.29696 12.2785L4.65355 12.9237C3.82015 12.0014 3.27567 10.8136 3.16352 9.50415H4.15326V8.73819H3.14776C3.2072 7.39355 3.72203 6.16537 4.54151 5.20424L5.30148 5.96421L5.84306 5.42266L5.07508 4.65469C6.02592 3.79502 7.25922 3.24253 8.61708 3.15448V4.27412H9.38303V3.15448C10.735 3.24217 11.9634 3.79032 12.9125 4.64359L12.1323 5.42568L12.6746 5.96648L13.4477 5.19149C14.2735 6.15449 14.7925 7.3876 14.8523 8.73819H13.8467V9.50415H14.8364Z" fill="#222222"/>
<path d="M9.27114 9.27073L8.7296 8.72919L11.0781 6.38067L11.6197 6.92221L9.27114 9.27073Z" fill="#222222"/>
</g>
<defs>
<clipPath id="clip0_2_539">
<rect width="18" height="18" fill="white"/>
</clipPath>
</defs>
</svg>
